<svg width="32" height="32" viewBox="0 0 32 32" fill="none" xmlns="http://www.w3.org/2000/svg">
<rect width="32" height="32" rx="4" fill="#1D1717"/>
<g clip-path="url(#clip0_6868_2767)">
<path d="M7.27295 4.36377V27.6365H9.21329V4.36377" fill="#F5ECE8"/>
<path d="M14.3838 4.36377L11.9583 15.2804C11.8541 15.7542 11.8541 16.2438 11.9583 16.7176L14.3838 27.6342H12.2281L9.99306 16.6586C9.90466 16.2234 9.90466 15.7723 9.99306 15.3371L12.2281 4.36377" fill="#F5ECE8"/>
<path d="M19.5566 4.36377L14.9777 15.1104C14.7352 15.6771 14.7352 16.3186 14.9777 16.8876L19.5566 27.6342H17.4009L12.822 16.8876C12.5795 16.3209 12.5795 15.6794 12.822 15.1104L17.4009 4.36377" fill="#F5ECE8"/>
<path d="M24.7269 4.36377L18.1602 14.7931C17.6955 15.532 17.6955 16.4705 18.1602 17.2094L24.7269 27.6388H22.7866L16.043 17.2366C15.5579 16.4864 15.5579 15.5207 16.043 14.7704L22.7866 4.36377" fill="#F5ECE8"/>
</g>
<defs>
<clipPath id="clip0_6868_2767">
<rect width="17.454" height="23.2727" fill="white" transform="translate(7.27295 4.36377)"/>
</clipPath>
</defs>
</svg>
